<?xml version="1.0" encoding="UTF-8"?>
<!DOCTYPE svg PUBLIC "-//W3C//DTD SVG 1.1//EN" "http://www.w3.org/Graphics/SVG/1.1/DTD/svg11.dtd">
<!-- Creator: CorelDRAW X7 -->
<svg xmlns="http://www.w3.org/2000/svg" xml:space="preserve" width="0.996016in" height="1.063in" version="1.1" style="shape-rendering:geometricPrecision; text-rendering:geometricPrecision; image-rendering:optimizeQuality; fill-rule:evenodd; clip-rule:evenodd"
viewBox="0 0 599 639"
 xmlns:xlink="http://www.w3.org/1999/xlink">
 <defs>
  <style type="text/css">
   <![CDATA[
    .fil0 {fill:white}
   ]]>
  </style>
 </defs>
 <g id="Layer_x0020_1">
  <metadata id="CorelCorpID_0Corel-Layer"/>
  <path class="fil0" d="M203 197c-76,0 -139,0 -201,0 -3,9 -3,332 0,341l21 0c0,19 -2,89 1,101l551 0c3,-12 1,-82 1,-100l21 -1c4,-13 1,-302 1,-341l-204 0c63,-29 125,-50 102,-123 -19,-60 -98,-99 -142,-55 -33,33 -46,89 -54,103 -12,-34 -27,-76 -52,-102 -31,-33 -79,-21 -111,6 -21,17 -54,68 -29,108 22,36 82,53 91,59 4,3 2,1 4,4zm-139 271l1 7 195 0c3,-25 0,-60 0,-86 1,-12 4,-12 18,-26 7,-7 14,-15 22,-21 7,6 14,14 21,21 13,13 17,14 18,26 0,26 -3,61 0,86l196 0 0 -216 -164 1c20,24 108,105 119,122l-53 5 -5 53c-13,-5 -120,-118 -132,-129 -35,30 -69,70 -100,97 -12,11 -21,23 -33,33l-5 -53 -54 -6c8,-14 101,-99 120,-122 -34,-2 -124,-1 -164,-1l0 209zm275 108l171 0 2 0 1 -76 -175 0 1 76zm-252 -7l0 7 2 0 169 0 2 0 1 -7 0 -69 -177 0 3 0 0 69zm197 -383c-4,-34 -17,-73 -32,-100 -6,-12 -19,-33 -34,-34 -24,-3 -51,18 -61,37 -3,7 -7,19 -7,28 1,17 20,29 33,36 25,14 67,30 101,33zm31 -1c33,-3 132,-33 135,-66 1,-19 -11,-39 -20,-48 -9,-9 -27,-21 -46,-20 -36,1 -65,101 -69,134z"/>
 </g>
</svg>
