<?xml version="1.0" encoding="UTF-8"?>
<!DOCTYPE svg PUBLIC "-//W3C//DTD SVG 1.1//EN" "http://www.w3.org/Graphics/SVG/1.1/DTD/svg11.dtd">
<!-- Creator: CorelDRAW X7 -->
<svg xmlns="http://www.w3.org/2000/svg" xml:space="preserve" width="1.1078in" height="1.063in" version="1.1" style="shape-rendering:geometricPrecision; text-rendering:geometricPrecision; image-rendering:optimizeQuality; fill-rule:evenodd; clip-rule:evenodd"
viewBox="0 0 236 226"
 xmlns:xlink="http://www.w3.org/1999/xlink">
 <defs>
  <style type="text/css">
   <![CDATA[
    .fil0 {fill:white}
    .fil1 {fill:white;fill-opacity:0.501961}
   ]]>
  </style>
 </defs>
 <g id="Layer_x0020_1">
  <metadata id="CorelCorpID_0Corel-Layer"/>
  <g id="_656199938624">
   <path class="fil0" d="M118 37l-3 -4c-8,-11 -15,-20 -29,-25 -52,-19 -102,33 -81,88 10,27 37,42 59,62 13,12 46,44 53,68 5,-15 11,-21 17,-31 -3,-5 -23,-17 -28,-48 -3,-25 6,-45 18,-59 29,-32 80,-32 108,0 10,-25 -2,-69 -34,-83 -23,-9 -53,-6 -68,12 -5,6 -8,14 -12,20z"/>
   <path class="fil1" d="M170 87c-70,12 -50,116 18,104 68,-12 51,-116 -18,-104zm2 42l-19 0 0 19 19 0 0 19 20 0 0 -19 19 0 0 -19 -19 0 0 -19 -20 -1 0 20z"/>
  </g>
 </g>
</svg>
