<?xml version="1.0" encoding="UTF-8"?>
<!DOCTYPE svg PUBLIC "-//W3C//DTD SVG 1.1//EN" "http://www.w3.org/Graphics/SVG/1.1/DTD/svg11.dtd">
<!-- Creator: CorelDRAW X7 -->
<svg xmlns="http://www.w3.org/2000/svg" xml:space="preserve" width="1.19105in" height="1.06299in" version="1.1" style="shape-rendering:geometricPrecision; text-rendering:geometricPrecision; image-rendering:optimizeQuality; fill-rule:evenodd; clip-rule:evenodd"
viewBox="0 0 776 692"
 xmlns:xlink="http://www.w3.org/1999/xlink">
 <defs>
  <style type="text/css">
   <![CDATA[
    .fil0 {fill:white}
   ]]>
  </style>
 </defs>
 <g id="Layer_x0020_1">
  <metadata id="CorelCorpID_0Corel-Layer"/>
  <g id="_656195331808">
   <path class="fil0" d="M109 463l0 228 -17 0c55,0 171,3 219,0 0,-39 0,-78 0,-117 0,-44 -3,-68 23,-95 50,-50 131,-13 131,59l0 154 201 0 0 -229c0,-15 -54,-63 -66,-75 -25,-24 -47,-46 -71,-70 -19,-20 -131,-134 -142,-141 -77,72 -168,167 -246,245 -9,9 -32,25 -32,41z"/>
   <path class="fil0" d="M391 87l286 287c9,9 38,42 50,47 27,11 54,-13 48,-42 -4,-18 -77,-85 -93,-100l-240 -241c-12,-12 -33,-40 -58,-38 -21,2 -84,72 -101,89l-240 241c-11,11 -40,35 -43,53 -3,27 23,48 49,37 14,-5 40,-34 51,-45 34,-34 277,-281 291,-288z"/>
  </g>
 </g>
</svg>
